<svg width="50" height="50" viewBox="0 0 50 50" fill="none" xmlns="http://www.w3.org/2000/svg">
<path fill-rule="evenodd" clip-rule="evenodd" d="M14.5145 35.4855C27.8716 48.8346 41.389 52.2741 45.0129 48.6502C45.3264 48.3368 45.6632 48.0164 46.0086 47.688C49.1255 44.7238 52.9344 41.1017 46.4961 35.9265C39.7598 30.5193 37.5974 32.7093 34.6554 35.6887C34.474 35.8724 34.2897 36.0591 34.1011 36.2472C31.8402 38.5161 26.1077 33.7858 21.1609 28.8391C16.2142 23.8923 11.4839 18.1598 13.7448 15.8908C13.9316 15.704 14.1171 15.5213 14.2996 15.3415C17.2818 12.4035 19.4824 10.2354 14.0655 3.50386C8.89072 -2.92671 5.27521 0.875326 2.31244 3.99094C1.98394 4.33639 1.66346 4.6734 1.34977 4.98709C-2.27412 8.61098 1.16537 22.1284 14.5145 35.4855Z" fill="#08A652"/>
</svg>
