<svg width="59" height="50" viewBox="0 0 59 50" fill="none" xmlns="http://www.w3.org/2000/svg">
<path d="M53.5208 0.539158C53.6755 0.473815 53.8296 0.409947 53.989 0.35728C55.0303 0.0133463 59.1308 -1.05958 58.735 3.53326C58.584 5.69755 57.225 13.2726 56.168 21.466L52.6566 44.9832C52.5816 45.4856 52.5298 45.9916 52.4139 46.4861C52.1612 47.5645 51.4477 49.4733 49.5242 49.9109C46.8062 50.5293 42.7293 47.7467 41.9743 47.1283C41.3703 46.6645 30.6495 39.7079 26.8746 36.3068C25.8176 35.3793 24.6096 33.5242 27.0256 31.3599L42.8803 15.9006C44.6923 14.0455 46.5042 9.71695 38.9544 14.9731L18.1888 29.3995C17.9395 29.5727 17.6882 29.7425 17.4088 29.8614C16.5459 30.2286 14.3214 30.8743 10.8689 29.8139L4.09399 27.6797C2.07625 27.0441 -0.905293 25.6747 0.406819 24.0153C0.887368 23.4075 1.85474 22.7459 3.62105 22.0843C18.6501 14.8525 37.1196 7.46755 53.5208 0.539158Z" fill="#2AABEE"/>
</svg>
