<svg width="60" height="60" viewBox="0 0 60 60" fill="none" xmlns="http://www.w3.org/2000/svg">
<path d="M17.3763 27.577C16.7042 28.2439 16.7 29.3293 17.3669 30.0013C18.0337 30.6734 19.1191 30.6776 19.7912 30.0108L17.3763 27.577ZM29.715 17.7489L30.9225 16.532C30.2541 15.8688 29.1759 15.8688 28.5075 16.532L29.715 17.7489ZM39.6388 30.0108C40.3109 30.6776 41.3963 30.6734 42.0631 30.0013C42.73 29.3293 42.7258 28.2439 42.0537 27.577L39.6388 30.0108ZM31.4293 19.2836C31.4293 18.3369 30.6618 17.5693 29.715 17.5693C28.7682 17.5693 28.0007 18.3369 28.0007 19.2836H31.4293ZM28.0007 41.6811C28.0007 42.6279 28.7682 43.3954 29.715 43.3954C30.6618 43.3954 31.4293 42.6279 31.4293 41.6811H28.0007ZM19.7912 30.0108L30.9225 18.9658L28.5075 16.532L17.3763 27.577L19.7912 30.0108ZM28.5075 18.9658L39.6388 30.0108L42.0537 27.577L30.9225 16.532L28.5075 18.9658ZM28.0007 19.2836V41.6811H31.4293V19.2836H28.0007ZM58.1443 29.715C58.1443 14.0193 45.4107 1.28571 29.715 1.28571V4.71429C43.5171 4.71429 54.7157 15.9129 54.7157 29.715H58.1443ZM29.715 1.28571C14.0193 1.28571 1.28571 14.0193 1.28571 29.715H4.71429C4.71429 15.9129 15.9129 4.71429 29.715 4.71429V1.28571ZM1.28571 29.715C1.28571 45.4107 14.0193 58.1443 29.715 58.1443V54.7157C15.9129 54.7157 4.71429 43.5171 4.71429 29.715H1.28571ZM29.715 58.1443C45.4107 58.1443 58.1443 45.4107 58.1443 29.715H54.7157C54.7157 43.5171 43.5171 54.7157 29.715 54.7157V58.1443Z" fill="white"/>
</svg>
