<svg width="57" height="58" viewBox="0 0 57 58" fill="none" xmlns="http://www.w3.org/2000/svg">
<path d="M28.8366 0.562457C12.8433 0.346441 -0.213373 13.4031 0.00264238 29.3964C0.215924 44.7349 12.7052 57.2242 28.0437 57.4375C44.0398 57.6562 57.0937 44.5996 56.8749 28.6062C56.6644 13.265 44.1751 0.775738 28.8366 0.562457ZM46.1206 45.3037C46.0662 45.3626 45.9994 45.4087 45.9251 45.439C45.8508 45.4692 45.7707 45.4827 45.6906 45.4785C45.6105 45.4743 45.5323 45.4526 45.4616 45.4148C45.3908 45.377 45.3292 45.3241 45.2812 45.2599C44.0583 43.66 42.5607 42.2901 40.8583 41.2144C37.3774 38.9804 32.9669 37.75 28.4401 37.75C23.9134 37.75 19.5028 38.9804 16.022 41.2144C14.3197 42.2897 12.8221 43.659 11.5991 45.2585C11.5511 45.3228 11.4895 45.3757 11.4187 45.4134C11.348 45.4512 11.2698 45.473 11.1897 45.4771C11.1095 45.4813 11.0295 45.4678 10.9552 45.4376C10.8809 45.4074 10.8141 45.3612 10.7597 45.3023C6.7479 40.9715 4.47539 35.3127 4.37764 29.4101C4.15479 16.106 15.0718 4.97027 28.3814 4.93746C41.6909 4.90464 52.5026 15.7123 52.5026 29C52.5072 35.0448 50.2277 40.8683 46.1206 45.3037Z" fill="white"/>
<path d="M28.4402 13.6875C25.7441 13.6875 23.3064 14.6979 21.5742 16.534C19.842 18.3701 18.9766 20.909 19.1721 23.6338C19.5686 29 23.7262 33.375 28.4402 33.375C33.1543 33.375 37.3037 29 37.7084 23.6352C37.9107 20.9363 37.0521 18.4207 35.2912 16.5504C33.5521 14.7047 31.1186 13.6875 28.4402 13.6875Z" fill="white"/>
</svg>
