<svg width="60" height="60" viewBox="0 0 60 60" fill="none" xmlns="http://www.w3.org/2000/svg">
<path d="M0.00354004 60L4.24117 44.5925C1.62625 40.0825 0.252221 34.97 0.254733 29.7275C0.262269 13.3375 13.6634 0 30.1291 0C38.1196 0.0025 45.6202 3.1 51.262 8.72C56.9013 14.34 60.0061 21.81 60.0035 29.755C59.996 46.1475 46.5948 59.485 30.1291 59.485C25.1304 59.4825 20.2045 58.235 15.8413 55.865L0.00354004 60ZM16.5748 50.4825C20.7847 52.97 24.8038 54.46 30.1191 54.4625C43.8041 54.4625 54.952 43.3775 54.9596 29.75C54.9646 16.095 43.8694 5.025 30.1392 5.02C16.4441 5.02 5.30372 16.105 5.29869 29.73C5.29618 35.2925 6.93396 39.4575 9.68452 43.815L7.1751 52.935L16.5748 50.4825ZM45.1781 36.8225C44.9922 36.5125 44.4949 36.3275 43.7463 35.955C43.0003 35.5825 39.3303 33.785 38.6446 33.5375C37.9613 33.29 37.464 33.165 36.9641 33.91C36.4667 34.6525 35.0349 36.3275 34.6004 36.8225C34.1658 37.3175 33.7287 37.38 32.9827 37.0075C32.2366 36.635 29.8302 35.8525 26.9792 33.32C24.7611 31.35 23.2615 28.9175 22.8269 28.1725C22.3924 27.43 22.7817 27.0275 23.1535 26.6575C23.4901 26.325 23.8995 25.79 24.2738 25.355C24.6531 24.925 24.7762 24.615 25.0274 24.1175C25.2761 23.6225 25.153 23.1875 24.9646 22.815C24.7762 22.445 23.2841 18.7875 22.6637 17.3C22.0558 15.8525 21.4404 16.0475 20.9832 16.025L19.5514 16C19.054 16 18.2452 16.185 17.5619 16.93C16.8787 17.675 14.9495 19.47 14.9495 23.1275C14.9495 26.785 17.6247 30.3175 17.9965 30.8125C18.3708 31.3075 23.259 38.8125 30.7471 42.03C32.528 42.795 33.9196 43.2525 35.0023 43.595C36.7908 44.16 38.4185 44.08 39.7046 43.89C41.1389 43.6775 44.1206 42.0925 44.7436 40.3575C45.3665 38.62 45.3665 37.1325 45.1781 36.8225Z" fill="#27D045"/>
</svg>
